<svg xmlns="http://www.w3.org/2000/svg" viewBox="0 0 512 512"><path fill="white" d="M 101.428 234.033 C 125.787 234.033 145.59 214.332 145.59 190.101 C 145.59 165.871 125.787 146.169 101.428 146.169 C 77.069 146.169 57.265 165.871 57.265 190.101 C 57.265 214.332 77.069 234.033 101.428 234.033 Z M 410.572 234.033 C 434.931 234.033 454.735 214.332 454.735 190.101 C 454.735 165.871 434.931 146.169 410.572 146.169 C 386.213 146.169 366.409 165.871 366.409 190.101 C 366.409 214.332 386.213 234.033 410.572 234.033 Z M 432.653 255.999 L 388.489 255.999 C 376.346 255.999 365.374 260.873 357.369 268.767 C 385.179 283.938 404.912 311.326 409.191 343.863 L 454.735 343.863 C 466.949 343.863 476.817 334.048 476.817 321.898 L 476.817 299.931 C 476.817 275.7 457.013 255.999 432.653 255.999 Z M 256 255.999 C 298.714 255.999 333.285 221.609 333.285 179.119 C 333.285 136.628 298.714 102.237 256 102.237 C 213.286 102.237 178.715 136.628 178.715 179.119 C 178.715 221.609 213.286 255.999 256 255.999 Z M 308.995 277.966 L 303.268 277.966 C 288.915 284.83 272.975 288.948 256 288.948 C 239.025 288.948 223.153 284.83 208.732 277.966 L 203.004 277.966 C 159.117 277.966 123.51 313.385 123.51 357.044 L 123.51 376.812 C 123.51 395.002 138.346 409.762 156.633 409.762 L 355.367 409.762 C 373.653 409.762 388.489 395.002 388.489 376.812 L 388.489 357.044 C 388.489 313.385 352.882 277.966 308.995 277.966 Z M 154.631 268.767 C 146.627 260.873 135.654 255.999 123.51 255.999 L 79.347 255.999 C 54.988 255.999 35.183 275.7 35.183 299.931 L 35.183 321.898 C 35.183 334.048 45.05 343.863 57.265 343.863 L 102.74 343.863 C 107.086 311.326 126.824 283.938 154.631 268.767 Z"></path></svg>
