<svg xmlns="http://www.w3.org/2000/svg" xmlns:xlink="http://www.w3.org/1999/xlink" viewBox="0 0 394 152"  fill-rule="evenodd" clip-rule="evenodd" stroke-linejoin="round" stroke-miterlimit="2"><clipPath id="a"><path d="M-.48-.4h286.8v152.88H-.48z"/></clipPath><g clip-path="url(#a)"><clipPath id="b"><path d="M-.48-.4h286.8v152.88H-.48z"/></clipPath><g clip-path="url(#b)"><use xlink:href="#_Image3" width="286.32" height="152" transform="scale(.99763 1)"/></g></g><clipPath id="c"><path d="M285.84-.4h108v152.88h-108z"/></clipPath><g clip-path="url(#c)"><clipPath id="d"><path d="M285.84-.4h108v152.88h-108z"/></clipPath><g clip-path="url(#d)"><use xlink:href="#_Image6" x="285.84" width="108" height="152"/></g></g><path d="M110.695 87.513H71.361V74.871h44.611l11.858-28.408H38.123v41.05H6v25.852h32.123v32.528h33.238v-32.528h28.542l10.792-25.852zM376.716 47.176h1.683v4.52h.747v-4.52h1.682v-.713h-4.112v.713zm10.569-.713v5.233h-.731v-4.01l-1.869 2.837h-.102l-1.851-2.837v4.01h-.748v-5.233h.798l1.869 2.871 1.852-2.871h.782zM318.69 107.826h48.579V83.82H318.69v-9.233h52.13V46.463H187.758l11.769 28.124h22.13v71.306h33.238V74.587h31.126v71.306h85.509V118.62h-52.84v-10.794zM148.81 109.007l9.09-24.148 9.091 24.148H148.81zM158.185 6.08L99.824 145.893a268.7 268.7 0 0137.637-5.557l2.968-7.75h34.8l3.034 7.705a269.14 269.14 0 0138.282 5.602L174.662 45.798 158.185 6.08zM195.846 26.014c1.441 0 2.401-.648 2.401-1.849v-.047c0-1.225-.888-1.849-2.376-1.849h-1.537v3.745h1.512zm-7.128-8.233h7.561c4.464 0 7.513 1.992 7.513 5.976v.048c0 4.057-3.097 6.217-7.633 6.217h-1.825v4.56h-5.616V17.781zM219.079 26.23v-.048c0-1.992-1.369-3.793-3.529-3.793-2.135 0-3.48 1.776-3.48 3.744v.049c0 1.992 1.368 3.792 3.528 3.792 2.137 0 3.481-1.776 3.481-3.744zm-12.673 0v-.048c0-4.873 4.008-8.761 9.192-8.761 5.185 0 9.146 3.84 9.146 8.712v.049c0 4.872-4.009 8.761-9.194 8.761-5.184 0-9.144-3.841-9.144-8.713zM226.158 17.781h5.881l2.376 8.065 2.711-8.113h4.849l2.712 8.113 2.377-8.065h5.784l-5.497 16.922h-4.895l-2.954-8.353-2.952 8.353h-4.896l-5.496-16.922zM255.607 17.781h14.329v4.608h-8.809v1.704h8.209v4.057h-8.209v1.824h8.929v4.608h-14.449V17.781zM281.408 25.774c1.343 0 2.16-.601 2.16-1.632v-.049c0-1.08-.84-1.607-2.137-1.607h-2.448v3.288h2.425zm-8.041-7.993h8.209c2.976 0 4.872.744 6.049 1.921 1.007 1.007 1.536 2.255 1.536 3.984v.048c0 2.448-1.273 4.152-3.313 5.136l3.912 5.712h-6.408l-3.169-4.8h-1.2v4.8h-5.616V17.781zM292.327 17.781h14.329v4.608h-8.809v1.704h8.209v4.057h-8.209v1.824h8.929v4.608h-14.449V17.781zM315.703 22.677v7.009h.936c2.569 0 4.225-1.056 4.225-3.481v-.047c0-2.424-1.656-3.481-4.225-3.481h-.936zm-5.617-4.896h6.433c6.673 0 10.009 3.289 10.009 8.256v.048c0 4.969-3.408 8.497-10.201 8.497h-6.241V17.781zM345.032 27.838H342.2v2.496h2.808c1.224 0 1.848-.504 1.848-1.224v-.048c0-.72-.6-1.224-1.824-1.224zm1.392-4.657c0-.744-.6-1.151-1.8-1.151H342.2v2.351h2.448c1.2 0 1.776-.408 1.776-1.151v-.049zm-9.697-5.4h9.409c2.328 0 3.792.528 4.777 1.512.599.6 1.032 1.464 1.032 2.617v.047c0 1.993-1.2 3.216-3.001 3.84 2.16.624 3.553 1.777 3.553 4.081v.048c0 2.689-2.208 4.656-6.457 4.656h-9.313V17.781zM359.792 28.63l-6.336-10.849h6.288l2.881 5.52 2.904-5.52h6.216l-6.336 10.777v6.024h-5.617V28.63z" fill="#fff" fill-rule="nonzero"/><defs><image id="_Image3" width="287" height="152"/><image id="_Image6" width="108" height="152"/></defs></svg>
